<?xml version="1.0" encoding="UTF-8" standalone="no"?>
<!DOCTYPE svg PUBLIC "-//W3C//DTD SVG 1.1//EN"
 "http://www.w3.org/Graphics/SVG/1.1/DTD/svg11.dtd">
<!-- Generated by graphviz version 2.40.1 (20161225.0304)
 -->
<!-- Title: snakemake_dag Pages: 1 -->
<svg width="558pt" height="476pt"
 viewBox="0.00 0.00 558.40 476.00" xmlns="http://www.w3.org/2000/svg" xmlns:xlink="http://www.w3.org/1999/xlink">
<g id="graph0" class="graph" transform="scale(1 1) rotate(0) translate(4 472)">
<title>snakemake_dag</title>
<polygon fill="#ffffff" stroke="transparent" points="-4,4 -4,-472 554.4042,-472 554.4042,4 -4,4"/>
<!-- 0 -->
<g id="node1" class="node">
<title>0</title>
<path fill="none" stroke="#88d856" stroke-width="2" d="M243.4042,-36C243.4042,-36 213.4042,-36 213.4042,-36 207.4042,-36 201.4042,-30 201.4042,-24 201.4042,-24 201.4042,-12 201.4042,-12 201.4042,-6 207.4042,0 213.4042,0 213.4042,0 243.4042,0 243.4042,0 249.4042,0 255.4042,-6 255.4042,-12 255.4042,-12 255.4042,-24 255.4042,-24 255.4042,-30 249.4042,-36 243.4042,-36"/>
<text text-anchor="middle" x="228.4042" y="-15.5" font-family="sans" font-size="10.00" fill="#000000">all</text>
</g>
<!-- 1 -->
<g id="node2" class="node">
<title>1</title>
<path fill="none" stroke="#59d856" stroke-width="2" d="M398.4042,-252C398.4042,-252 286.4042,-252 286.4042,-252 280.4042,-252 274.4042,-246 274.4042,-240 274.4042,-240 274.4042,-228 274.4042,-228 274.4042,-222 280.4042,-216 286.4042,-216 286.4042,-216 398.4042,-216 398.4042,-216 404.4042,-216 410.4042,-222 410.4042,-228 410.4042,-228 410.4042,-240 410.4042,-240 410.4042,-246 404.4042,-252 398.4042,-252"/>
<text text-anchor="middle" x="342.4042" y="-231.5" font-family="sans" font-size="10.00" fill="#000000">multiqc_fastqc_trimmed</text>
</g>
<!-- 1&#45;&gt;0 -->
<g id="edge6" class="edge">
<title>1&#45;&gt;0</title>
<path fill="none" stroke="#c0c0c0" stroke-width="2" d="M339.6374,-215.6241C334.2137,-184.07 319.9476,-118.4985 289.4042,-72 282.2354,-61.0864 272.304,-51.0215 262.5348,-42.6125"/>
<polygon fill="#c0c0c0" stroke="#c0c0c0" stroke-width="2" points="264.7362,-39.8913 254.7908,-36.239 260.2879,-45.2962 264.7362,-39.8913"/>
</g>
<!-- 2 -->
<g id="node3" class="node">
<title>2</title>
<path fill="none" stroke="#70d856" stroke-width="2" d="M61.9042,-180C61.9042,-180 24.9042,-180 24.9042,-180 18.9042,-180 12.9042,-174 12.9042,-168 12.9042,-168 12.9042,-156 12.9042,-156 12.9042,-150 18.9042,-144 24.9042,-144 24.9042,-144 61.9042,-144 61.9042,-144 67.9042,-144 73.9042,-150 73.9042,-156 73.9042,-156 73.9042,-168 73.9042,-168 73.9042,-174 67.9042,-180 61.9042,-180"/>
<text text-anchor="middle" x="43.4042" y="-159.5" font-family="sans" font-size="10.00" fill="#000000">htseq_qa</text>
</g>
<!-- 2&#45;&gt;0 -->
<g id="edge3" class="edge">
<title>2&#45;&gt;0</title>
<path fill="none" stroke="#c0c0c0" stroke-width="2" d="M43.6385,-143.6982C44.8784,-123.5864 49.8954,-91.547 68.4042,-72 85.4432,-54.0052 149.7564,-36.2273 191.4736,-26.2276"/>
<polygon fill="#c0c0c0" stroke="#c0c0c0" stroke-width="2" points="192.3602,-29.6147 201.2926,-23.917 190.7568,-22.8008 192.3602,-29.6147"/>
</g>
<!-- 3 -->
<g id="node4" class="node">
<title>3</title>
<path fill="none" stroke="#5673d8" stroke-width="2" d="M145.4042,-108C145.4042,-108 89.4042,-108 89.4042,-108 83.4042,-108 77.4042,-102 77.4042,-96 77.4042,-96 77.4042,-84 77.4042,-84 77.4042,-78 83.4042,-72 89.4042,-72 89.4042,-72 145.4042,-72 145.4042,-72 151.4042,-72 157.4042,-78 157.4042,-84 157.4042,-84 157.4042,-96 157.4042,-96 157.4042,-102 151.4042,-108 145.4042,-108"/>
<text text-anchor="middle" x="117.4042" y="-87.5" font-family="sans" font-size="10.00" fill="#000000">htseq_merge</text>
</g>
<!-- 3&#45;&gt;0 -->
<g id="edge4" class="edge">
<title>3&#45;&gt;0</title>
<path fill="none" stroke="#c0c0c0" stroke-width="2" d="M145.4142,-71.8314C159.6951,-62.5681 177.2247,-51.1975 192.4876,-41.2972"/>
<polygon fill="#c0c0c0" stroke="#c0c0c0" stroke-width="2" points="194.6857,-44.0434 201.1706,-35.665 190.8763,-38.1706 194.6857,-44.0434"/>
</g>
<!-- 4 -->
<g id="node5" class="node">
<title>4</title>
<path fill="none" stroke="#568ad8" stroke-width="2" d="M538.4042,-252C538.4042,-252 440.4042,-252 440.4042,-252 434.4042,-252 428.4042,-246 428.4042,-240 428.4042,-240 428.4042,-228 428.4042,-228 428.4042,-222 434.4042,-216 440.4042,-216 440.4042,-216 538.4042,-216 538.4042,-216 544.4042,-216 550.4042,-222 550.4042,-228 550.4042,-228 550.4042,-240 550.4042,-240 550.4042,-246 544.4042,-252 538.4042,-252"/>
<text text-anchor="middle" x="489.4042" y="-231.5" font-family="sans" font-size="10.00" fill="#000000">multiqc_trimmomatic</text>
</g>
<!-- 4&#45;&gt;0 -->
<g id="edge7" class="edge">
<title>4&#45;&gt;0</title>
<path fill="none" stroke="#c0c0c0" stroke-width="2" d="M471.8534,-215.8485C441.2159,-184.6333 375.3218,-119.5589 313.4042,-72 297.9891,-60.1596 279.9313,-48.4186 264.4338,-38.9239"/>
<polygon fill="#c0c0c0" stroke="#c0c0c0" stroke-width="2" points="266.0126,-35.7885 255.6442,-33.6094 262.3906,-41.7786 266.0126,-35.7885"/>
</g>
<!-- 5 -->
<g id="node6" class="node">
<title>5</title>
<path fill="none" stroke="#56c1d8" stroke-width="2" d="M268.9042,-108C268.9042,-108 187.9042,-108 187.9042,-108 181.9042,-108 175.9042,-102 175.9042,-96 175.9042,-96 175.9042,-84 175.9042,-84 175.9042,-78 181.9042,-72 187.9042,-72 187.9042,-72 268.9042,-72 268.9042,-72 274.9042,-72 280.9042,-78 280.9042,-84 280.9042,-84 280.9042,-96 280.9042,-96 280.9042,-102 274.9042,-108 268.9042,-108"/>
<text text-anchor="middle" x="228.4042" y="-87.5" font-family="sans" font-size="10.00" fill="#000000">multiqc_summary</text>
</g>
<!-- 5&#45;&gt;0 -->
<g id="edge5" class="edge">
<title>5&#45;&gt;0</title>
<path fill="none" stroke="#c0c0c0" stroke-width="2" d="M228.4042,-71.8314C228.4042,-64.131 228.4042,-54.9743 228.4042,-46.4166"/>
<polygon fill="#c0c0c0" stroke="#c0c0c0" stroke-width="2" points="231.9043,-46.4132 228.4042,-36.4133 224.9043,-46.4133 231.9043,-46.4132"/>
</g>
<!-- 6 -->
<g id="node7" class="node">
<title>6</title>
<path fill="none" stroke="#bed856" stroke-width="2" d="M100.9042,-324C100.9042,-324 35.9042,-324 35.9042,-324 29.9042,-324 23.9042,-318 23.9042,-312 23.9042,-312 23.9042,-300 23.9042,-300 23.9042,-294 29.9042,-288 35.9042,-288 35.9042,-288 100.9042,-288 100.9042,-288 106.9042,-288 112.9042,-294 112.9042,-300 112.9042,-300 112.9042,-312 112.9042,-312 112.9042,-318 106.9042,-324 100.9042,-324"/>
<text text-anchor="middle" x="68.4042" y="-303.5" font-family="sans" font-size="10.00" fill="#000000">multiqc_fastqc</text>
</g>
<!-- 6&#45;&gt;0 -->
<g id="edge2" class="edge">
<title>6&#45;&gt;0</title>
<path fill="none" stroke="#c0c0c0" stroke-width="2" d="M52.3525,-287.5204C28.6418,-257.925 -11.4251,-197.7521 3.4042,-144 13.3168,-108.0698 16.969,-94.8649 46.4042,-72 89.0539,-38.8703 151.6692,-26.028 191.2184,-21.0753"/>
<polygon fill="#c0c0c0" stroke="#c0c0c0" stroke-width="2" points="191.701,-24.543 201.2377,-19.9277 190.9043,-17.5885 191.701,-24.543"/>
</g>
<!-- 7 -->
<g id="node8" class="node">
<title>7</title>
<path fill="none" stroke="#d88d56" stroke-width="2" d="M434.9042,-108C434.9042,-108 387.9042,-108 387.9042,-108 381.9042,-108 375.9042,-102 375.9042,-96 375.9042,-96 375.9042,-84 375.9042,-84 375.9042,-78 381.9042,-72 387.9042,-72 387.9042,-72 434.9042,-72 434.9042,-72 440.9042,-72 446.9042,-78 446.9042,-84 446.9042,-84 446.9042,-96 446.9042,-96 446.9042,-102 440.9042,-108 434.9042,-108"/>
<text text-anchor="middle" x="411.4042" y="-87.5" font-family="sans" font-size="10.00" fill="#000000">storeconfig</text>
</g>
<!-- 7&#45;&gt;0 -->
<g id="edge1" class="edge">
<title>7&#45;&gt;0</title>
<path fill="none" stroke="#c0c0c0" stroke-width="2" d="M375.6856,-75.9468C343.7298,-63.374 297.0955,-45.0261 264.9035,-32.3604"/>
<polygon fill="#c0c0c0" stroke="#c0c0c0" stroke-width="2" points="265.9959,-29.0291 255.4088,-28.6248 263.433,-35.543 265.9959,-29.0291"/>
</g>
<!-- 8 -->
<g id="node9" class="node">
<title>8</title>
<path fill="none" stroke="#d6d856" stroke-width="2" d="M377.4042,-324C377.4042,-324 307.4042,-324 307.4042,-324 301.4042,-324 295.4042,-318 295.4042,-312 295.4042,-312 295.4042,-300 295.4042,-300 295.4042,-294 301.4042,-288 307.4042,-288 307.4042,-288 377.4042,-288 377.4042,-288 383.4042,-288 389.4042,-294 389.4042,-300 389.4042,-300 389.4042,-312 389.4042,-312 389.4042,-318 383.4042,-324 377.4042,-324"/>
<text text-anchor="middle" x="342.4042" y="-303.5" font-family="sans" font-size="10.00" fill="#000000">fastqc_trimmed</text>
</g>
<!-- 8&#45;&gt;1 -->
<g id="edge8" class="edge">
<title>8&#45;&gt;1</title>
<path fill="none" stroke="#c0c0c0" stroke-width="2" d="M342.4042,-287.8314C342.4042,-280.131 342.4042,-270.9743 342.4042,-262.4166"/>
<polygon fill="#c0c0c0" stroke="#c0c0c0" stroke-width="2" points="345.9043,-262.4132 342.4042,-252.4133 338.9043,-262.4133 345.9043,-262.4132"/>
</g>
<!-- 9 -->
<g id="node10" class="node">
<title>9</title>
<path fill="none" stroke="#56a2d8" stroke-width="2" d="M134.4042,-252C134.4042,-252 72.4042,-252 72.4042,-252 66.4042,-252 60.4042,-246 60.4042,-240 60.4042,-240 60.4042,-228 60.4042,-228 60.4042,-222 66.4042,-216 72.4042,-216 72.4042,-216 134.4042,-216 134.4042,-216 140.4042,-216 146.4042,-222 146.4042,-228 146.4042,-228 146.4042,-240 146.4042,-240 146.4042,-246 140.4042,-252 134.4042,-252"/>
<text text-anchor="middle" x="103.4042" y="-231.5" font-family="sans" font-size="10.00" fill="#000000">samtools_sort</text>
</g>
<!-- 9&#45;&gt;2 -->
<g id="edge9" class="edge">
<title>9&#45;&gt;2</title>
<path fill="none" stroke="#c0c0c0" stroke-width="2" d="M88.2637,-215.8314C81.2826,-207.454 72.8652,-197.3531 65.2167,-188.1749"/>
<polygon fill="#c0c0c0" stroke="#c0c0c0" stroke-width="2" points="67.8393,-185.8548 58.7486,-180.4133 62.4617,-190.3362 67.8393,-185.8548"/>
</g>
<!-- 10 -->
<g id="node11" class="node">
<title>10</title>
<path fill="none" stroke="#d8a456" stroke-width="2" d="M134.4042,-180C134.4042,-180 104.4042,-180 104.4042,-180 98.4042,-180 92.4042,-174 92.4042,-168 92.4042,-168 92.4042,-156 92.4042,-156 92.4042,-150 98.4042,-144 104.4042,-144 104.4042,-144 134.4042,-144 134.4042,-144 140.4042,-144 146.4042,-150 146.4042,-156 146.4042,-156 146.4042,-168 146.4042,-168 146.4042,-174 140.4042,-180 134.4042,-180"/>
<text text-anchor="middle" x="119.4042" y="-159.5" font-family="sans" font-size="10.00" fill="#000000">htseq</text>
</g>
<!-- 9&#45;&gt;10 -->
<g id="edge18" class="edge">
<title>9&#45;&gt;10</title>
<path fill="none" stroke="#c0c0c0" stroke-width="2" d="M107.4417,-215.8314C109.1529,-208.131 111.1877,-198.9743 113.0894,-190.4166"/>
<polygon fill="#c0c0c0" stroke="#c0c0c0" stroke-width="2" points="116.5597,-190.9344 115.3124,-180.4133 109.7263,-189.4159 116.5597,-190.9344"/>
</g>
<!-- 13 -->
<g id="node14" class="node">
<title>13</title>
<path fill="none" stroke="#56d8c1" stroke-width="2" d="M206.4042,-180C206.4042,-180 176.4042,-180 176.4042,-180 170.4042,-180 164.4042,-174 164.4042,-168 164.4042,-168 164.4042,-156 164.4042,-156 164.4042,-150 170.4042,-144 176.4042,-144 176.4042,-144 206.4042,-144 206.4042,-144 212.4042,-144 218.4042,-150 218.4042,-156 218.4042,-156 218.4042,-168 218.4042,-168 218.4042,-174 212.4042,-180 206.4042,-180"/>
<text text-anchor="middle" x="191.4042" y="-159.5" font-family="sans" font-size="10.00" fill="#000000">rseqc</text>
</g>
<!-- 9&#45;&gt;13 -->
<g id="edge22" class="edge">
<title>9&#45;&gt;13</title>
<path fill="none" stroke="#c0c0c0" stroke-width="2" d="M125.6103,-215.8314C136.4492,-206.9632 149.6486,-196.1637 161.372,-186.5718"/>
<polygon fill="#c0c0c0" stroke="#c0c0c0" stroke-width="2" points="163.682,-189.2041 169.2052,-180.1628 159.2493,-183.7864 163.682,-189.2041"/>
</g>
<!-- 10&#45;&gt;3 -->
<g id="edge10" class="edge">
<title>10&#45;&gt;3</title>
<path fill="none" stroke="#c0c0c0" stroke-width="2" d="M118.8995,-143.8314C118.6856,-136.131 118.4313,-126.9743 118.1936,-118.4166"/>
<polygon fill="#c0c0c0" stroke="#c0c0c0" stroke-width="2" points="121.6921,-118.3122 117.9157,-108.4133 114.6948,-118.5066 121.6921,-118.3122"/>
</g>
<!-- 10&#45;&gt;5 -->
<g id="edge14" class="edge">
<title>10&#45;&gt;5</title>
<path fill="none" stroke="#c0c0c0" stroke-width="2" d="M146.6284,-144.0171C160.5442,-134.825 177.6566,-123.5213 192.6246,-113.6342"/>
<polygon fill="#c0c0c0" stroke="#c0c0c0" stroke-width="2" points="194.7345,-116.4353 201.1494,-108.0032 190.8763,-110.5945 194.7345,-116.4353"/>
</g>
<!-- 11 -->
<g id="node12" class="node">
<title>11</title>
<path fill="none" stroke="#56d873" stroke-width="2" d="M379.4042,-396C379.4042,-396 305.4042,-396 305.4042,-396 299.4042,-396 293.4042,-390 293.4042,-384 293.4042,-384 293.4042,-372 293.4042,-372 293.4042,-366 299.4042,-360 305.4042,-360 305.4042,-360 379.4042,-360 379.4042,-360 385.4042,-360 391.4042,-366 391.4042,-372 391.4042,-372 391.4042,-384 391.4042,-384 391.4042,-390 385.4042,-396 379.4042,-396"/>
<text text-anchor="middle" x="342.4042" y="-375.5" font-family="sans" font-size="10.00" fill="#000000">trimmomatic_pe</text>
</g>
<!-- 11&#45;&gt;4 -->
<g id="edge11" class="edge">
<title>11&#45;&gt;4</title>
<path fill="none" stroke="#c0c0c0" stroke-width="2" d="M361.3842,-359.8127C372.2546,-349.3677 386.1326,-335.9841 398.4042,-324 420.5211,-302.4012 445.4753,-277.6974 463.6508,-259.6425"/>
<polygon fill="#c0c0c0" stroke="#c0c0c0" stroke-width="2" points="466.3722,-261.8723 470.9972,-252.3402 461.4374,-256.9076 466.3722,-261.8723"/>
</g>
<!-- 11&#45;&gt;8 -->
<g id="edge16" class="edge">
<title>11&#45;&gt;8</title>
<path fill="none" stroke="#c0c0c0" stroke-width="2" d="M342.4042,-359.8314C342.4042,-352.131 342.4042,-342.9743 342.4042,-334.4166"/>
<polygon fill="#c0c0c0" stroke="#c0c0c0" stroke-width="2" points="345.9043,-334.4132 342.4042,-324.4133 338.9043,-334.4133 345.9043,-334.4132"/>
</g>
<!-- 12 -->
<g id="node13" class="node">
<title>12</title>
<path fill="none" stroke="#56d88a" stroke-width="2" d="M257.4042,-324C257.4042,-324 227.4042,-324 227.4042,-324 221.4042,-324 215.4042,-318 215.4042,-312 215.4042,-312 215.4042,-300 215.4042,-300 215.4042,-294 221.4042,-288 227.4042,-288 227.4042,-288 257.4042,-288 257.4042,-288 263.4042,-288 269.4042,-294 269.4042,-300 269.4042,-300 269.4042,-312 269.4042,-312 269.4042,-318 263.4042,-324 257.4042,-324"/>
<text text-anchor="middle" x="242.4042" y="-303.5" font-family="sans" font-size="10.00" fill="#000000">hisat2</text>
</g>
<!-- 11&#45;&gt;12 -->
<g id="edge21" class="edge">
<title>11&#45;&gt;12</title>
<path fill="none" stroke="#c0c0c0" stroke-width="2" d="M317.17,-359.8314C304.6162,-350.7927 289.2759,-339.7476 275.7651,-330.0198"/>
<polygon fill="#c0c0c0" stroke="#c0c0c0" stroke-width="2" points="277.7908,-327.1655 267.6304,-324.1628 273.7007,-332.8463 277.7908,-327.1655"/>
</g>
<!-- 12&#45;&gt;5 -->
<g id="edge12" class="edge">
<title>12&#45;&gt;5</title>
<path fill="none" stroke="#c0c0c0" stroke-width="2" d="M241.2347,-287.9555C238.795,-250.3144 233.1478,-163.1867 230.2271,-118.1246"/>
<polygon fill="#c0c0c0" stroke="#c0c0c0" stroke-width="2" points="233.7198,-117.8977 229.5803,-108.1451 226.7345,-118.3505 233.7198,-117.8977"/>
</g>
<!-- 12&#45;&gt;9 -->
<g id="edge17" class="edge">
<title>12&#45;&gt;9</title>
<path fill="none" stroke="#c0c0c0" stroke-width="2" d="M215.2736,-291.9468C195.9694,-281.9474 169.613,-268.2952 147.3315,-256.7537"/>
<polygon fill="#c0c0c0" stroke="#c0c0c0" stroke-width="2" points="148.8724,-253.6102 138.383,-252.1185 145.6527,-259.8258 148.8724,-253.6102"/>
</g>
<!-- 13&#45;&gt;5 -->
<g id="edge13" class="edge">
<title>13&#45;&gt;5</title>
<path fill="none" stroke="#c0c0c0" stroke-width="2" d="M200.7409,-143.8314C204.8285,-135.8771 209.7146,-126.369 214.2351,-117.5723"/>
<polygon fill="#c0c0c0" stroke="#c0c0c0" stroke-width="2" points="217.4841,-118.9074 218.9418,-108.4133 211.2581,-115.7078 217.4841,-118.9074"/>
</g>
<!-- 14 -->
<g id="node15" class="node">
<title>14</title>
<path fill="none" stroke="#56d8a2" stroke-width="2" d="M169.4042,-396C169.4042,-396 139.4042,-396 139.4042,-396 133.4042,-396 127.4042,-390 127.4042,-384 127.4042,-384 127.4042,-372 127.4042,-372 127.4042,-366 133.4042,-360 139.4042,-360 139.4042,-360 169.4042,-360 169.4042,-360 175.4042,-360 181.4042,-366 181.4042,-372 181.4042,-372 181.4042,-384 181.4042,-384 181.4042,-390 175.4042,-396 169.4042,-396"/>
<text text-anchor="middle" x="154.4042" y="-375.5" font-family="sans" font-size="10.00" fill="#000000">fastqc</text>
</g>
<!-- 14&#45;&gt;6 -->
<g id="edge15" class="edge">
<title>14&#45;&gt;6</title>
<path fill="none" stroke="#c0c0c0" stroke-width="2" d="M132.7028,-359.8314C122.2121,-351.0485 109.4587,-340.3712 98.0848,-330.8489"/>
<polygon fill="#c0c0c0" stroke="#c0c0c0" stroke-width="2" points="100.0131,-327.8986 90.0987,-324.1628 95.5195,-333.2659 100.0131,-327.8986"/>
</g>
<!-- 15 -->
<g id="node16" class="node">
<title>15</title>
<path fill="none" stroke="#56d8d8" stroke-width="2" d="M262.4042,-468C262.4042,-468 232.4042,-468 232.4042,-468 226.4042,-468 220.4042,-462 220.4042,-456 220.4042,-456 220.4042,-444 220.4042,-444 220.4042,-438 226.4042,-432 232.4042,-432 232.4042,-432 262.4042,-432 262.4042,-432 268.4042,-432 274.4042,-438 274.4042,-444 274.4042,-444 274.4042,-456 274.4042,-456 274.4042,-462 268.4042,-468 262.4042,-468"/>
<text text-anchor="middle" x="247.4042" y="-447.5" font-family="sans" font-size="10.00" fill="#000000">merge</text>
</g>
<!-- 15&#45;&gt;11 -->
<g id="edge19" class="edge">
<title>15&#45;&gt;11</title>
<path fill="none" stroke="#c0c0c0" stroke-width="2" d="M271.3767,-431.8314C283.1903,-422.8779 297.6014,-411.9558 310.3477,-402.2955"/>
<polygon fill="#c0c0c0" stroke="#c0c0c0" stroke-width="2" points="312.5837,-404.9925 318.4394,-396.1628 308.3556,-399.4137 312.5837,-404.9925"/>
</g>
<!-- 15&#45;&gt;14 -->
<g id="edge24" class="edge">
<title>15&#45;&gt;14</title>
<path fill="none" stroke="#c0c0c0" stroke-width="2" d="M223.9364,-431.8314C212.3715,-422.8779 198.2638,-411.9558 185.7859,-402.2955"/>
<polygon fill="#c0c0c0" stroke="#c0c0c0" stroke-width="2" points="187.9144,-399.5171 177.8645,-396.1628 183.6292,-405.0521 187.9144,-399.5171"/>
</g>
<!-- 16 -->
<g id="node17" class="node">
<title>16</title>
<path fill="none" stroke="#d85656" stroke-width="2" d="M263.4042,-396C263.4042,-396 213.4042,-396 213.4042,-396 207.4042,-396 201.4042,-390 201.4042,-384 201.4042,-384 201.4042,-372 201.4042,-372 201.4042,-366 207.4042,-360 213.4042,-360 213.4042,-360 263.4042,-360 263.4042,-360 269.4042,-360 275.4042,-366 275.4042,-372 275.4042,-372 275.4042,-384 275.4042,-384 275.4042,-390 269.4042,-396 263.4042,-396"/>
<text text-anchor="middle" x="238.4042" y="-375.5" font-family="sans" font-size="10.00" fill="#000000">hisat2index</text>
</g>
<!-- 16&#45;&gt;12 -->
<g id="edge20" class="edge">
<title>16&#45;&gt;12</title>
<path fill="none" stroke="#c0c0c0" stroke-width="2" d="M239.4136,-359.8314C239.8414,-352.131 240.3501,-342.9743 240.8255,-334.4166"/>
<polygon fill="#c0c0c0" stroke="#c0c0c0" stroke-width="2" points="244.3211,-334.592 241.3813,-324.4133 237.3319,-334.2037 244.3211,-334.592"/>
</g>
<!-- 17 -->
<g id="node18" class="node">
<title>17</title>
<path fill="none" stroke="#a7d856" stroke-width="2" d="M206.4042,-252C206.4042,-252 176.4042,-252 176.4042,-252 170.4042,-252 164.4042,-246 164.4042,-240 164.4042,-240 164.4042,-228 164.4042,-228 164.4042,-222 170.4042,-216 176.4042,-216 176.4042,-216 206.4042,-216 206.4042,-216 212.4042,-216 218.4042,-222 218.4042,-228 218.4042,-228 218.4042,-240 218.4042,-240 218.4042,-246 212.4042,-252 206.4042,-252"/>
<text text-anchor="middle" x="191.4042" y="-231.5" font-family="sans" font-size="10.00" fill="#000000">gtf2bed</text>
</g>
<!-- 17&#45;&gt;13 -->
<g id="edge23" class="edge">
<title>17&#45;&gt;13</title>
<path fill="none" stroke="#c0c0c0" stroke-width="2" d="M191.4042,-215.8314C191.4042,-208.131 191.4042,-198.9743 191.4042,-190.4166"/>
<polygon fill="#c0c0c0" stroke="#c0c0c0" stroke-width="2" points="194.9043,-190.4132 191.4042,-180.4133 187.9043,-190.4133 194.9043,-190.4132"/>
</g>
</g>
</svg>
