<?xml version="1.0" encoding="UTF-8" standalone="no"?>
<!DOCTYPE svg PUBLIC "-//W3C//DTD SVG 1.1//EN"
 "http://www.w3.org/Graphics/SVG/1.1/DTD/svg11.dtd">
<!-- Generated by graphviz version 2.40.1 (20161225.0304)
 -->
<!-- Title: snakemake_dag Pages: 1 -->
<svg width="475pt" height="476pt"
 viewBox="0.00 0.00 475.02 476.00" xmlns="http://www.w3.org/2000/svg" xmlns:xlink="http://www.w3.org/1999/xlink">
<g id="graph0" class="graph" transform="scale(1 1) rotate(0) translate(4 472)">
<title>snakemake_dag</title>
<polygon fill="#ffffff" stroke="transparent" points="-4,4 -4,-472 471.0164,-472 471.0164,4 -4,4"/>
<!-- 0 -->
<g id="node1" class="node">
<title>0</title>
<path fill="none" stroke="#56d873" stroke-width="2" d="M280.0164,-36C280.0164,-36 250.0164,-36 250.0164,-36 244.0164,-36 238.0164,-30 238.0164,-24 238.0164,-24 238.0164,-12 238.0164,-12 238.0164,-6 244.0164,0 250.0164,0 250.0164,0 280.0164,0 280.0164,0 286.0164,0 292.0164,-6 292.0164,-12 292.0164,-12 292.0164,-24 292.0164,-24 292.0164,-30 286.0164,-36 280.0164,-36"/>
<text text-anchor="middle" x="265.0164" y="-15.5" font-family="sans" font-size="10.00" fill="#000000">all</text>
</g>
<!-- 1 -->
<g id="node2" class="node">
<title>1</title>
<path fill="none" stroke="#59d856" stroke-width="2" d="M262.5164,-180C262.5164,-180 225.5164,-180 225.5164,-180 219.5164,-180 213.5164,-174 213.5164,-168 213.5164,-168 213.5164,-156 213.5164,-156 213.5164,-150 219.5164,-144 225.5164,-144 225.5164,-144 262.5164,-144 262.5164,-144 268.5164,-144 274.5164,-150 274.5164,-156 274.5164,-156 274.5164,-168 274.5164,-168 274.5164,-174 268.5164,-180 262.5164,-180"/>
<text text-anchor="middle" x="244.0164" y="-159.5" font-family="sans" font-size="10.00" fill="#000000">htseq_qa</text>
</g>
<!-- 1&#45;&gt;0 -->
<g id="edge6" class="edge">
<title>1&#45;&gt;0</title>
<path fill="none" stroke="#c0c0c0" stroke-width="2" d="M246.6761,-143.7623C250.2579,-119.201 256.6678,-75.2474 260.8814,-46.3541"/>
<polygon fill="#c0c0c0" stroke="#c0c0c0" stroke-width="2" points="264.3986,-46.4901 262.3783,-36.0896 257.4718,-45.4798 264.3986,-46.4901"/>
</g>
<!-- 2 -->
<g id="node3" class="node">
<title>2</title>
<path fill="none" stroke="#56d88a" stroke-width="2" d="M455.0164,-180C455.0164,-180 343.0164,-180 343.0164,-180 337.0164,-180 331.0164,-174 331.0164,-168 331.0164,-168 331.0164,-156 331.0164,-156 331.0164,-150 337.0164,-144 343.0164,-144 343.0164,-144 455.0164,-144 455.0164,-144 461.0164,-144 467.0164,-150 467.0164,-156 467.0164,-156 467.0164,-168 467.0164,-168 467.0164,-174 461.0164,-180 455.0164,-180"/>
<text text-anchor="middle" x="399.0164" y="-159.5" font-family="sans" font-size="10.00" fill="#000000">multiqc_fastqc_trimmed</text>
</g>
<!-- 2&#45;&gt;0 -->
<g id="edge7" class="edge">
<title>2&#45;&gt;0</title>
<path fill="none" stroke="#c0c0c0" stroke-width="2" d="M382.8252,-143.9366C366.3882,-125.6686 340.1372,-96.6832 317.0164,-72 308.2579,-62.6497 298.5466,-52.5059 289.9101,-43.5614"/>
<polygon fill="#c0c0c0" stroke="#c0c0c0" stroke-width="2" points="292.4227,-41.1248 282.9528,-36.3737 287.393,-45.9933 292.4227,-41.1248"/>
</g>
<!-- 3 -->
<g id="node4" class="node">
<title>3</title>
<path fill="none" stroke="#a7d856" stroke-width="2" d="M428.5164,-108C428.5164,-108 381.5164,-108 381.5164,-108 375.5164,-108 369.5164,-102 369.5164,-96 369.5164,-96 369.5164,-84 369.5164,-84 369.5164,-78 375.5164,-72 381.5164,-72 381.5164,-72 428.5164,-72 428.5164,-72 434.5164,-72 440.5164,-78 440.5164,-84 440.5164,-84 440.5164,-96 440.5164,-96 440.5164,-102 434.5164,-108 428.5164,-108"/>
<text text-anchor="middle" x="405.0164" y="-87.5" font-family="sans" font-size="10.00" fill="#000000">storeconfig</text>
</g>
<!-- 3&#45;&gt;0 -->
<g id="edge4" class="edge">
<title>3&#45;&gt;0</title>
<path fill="none" stroke="#c0c0c0" stroke-width="2" d="M369.6885,-71.8314C348.8022,-61.0898 322.4063,-47.5148 301.3472,-36.6844"/>
<polygon fill="#c0c0c0" stroke="#c0c0c0" stroke-width="2" points="302.8774,-33.5357 292.3838,-32.0747 299.676,-39.7607 302.8774,-33.5357"/>
</g>
<!-- 4 -->
<g id="node5" class="node">
<title>4</title>
<path fill="none" stroke="#d86e56" stroke-width="2" d="M225.0164,-108C225.0164,-108 169.0164,-108 169.0164,-108 163.0164,-108 157.0164,-102 157.0164,-96 157.0164,-96 157.0164,-84 157.0164,-84 157.0164,-78 163.0164,-72 169.0164,-72 169.0164,-72 225.0164,-72 225.0164,-72 231.0164,-72 237.0164,-78 237.0164,-84 237.0164,-84 237.0164,-96 237.0164,-96 237.0164,-102 231.0164,-108 225.0164,-108"/>
<text text-anchor="middle" x="197.0164" y="-87.5" font-family="sans" font-size="10.00" fill="#000000">htseq_merge</text>
</g>
<!-- 4&#45;&gt;0 -->
<g id="edge2" class="edge">
<title>4&#45;&gt;0</title>
<path fill="none" stroke="#c0c0c0" stroke-width="2" d="M214.1757,-71.8314C222.1676,-63.3694 231.8202,-53.1489 240.558,-43.8971"/>
<polygon fill="#c0c0c0" stroke="#c0c0c0" stroke-width="2" points="243.3044,-46.0866 247.6261,-36.4133 238.2153,-41.2802 243.3044,-46.0866"/>
</g>
<!-- 5 -->
<g id="node6" class="node">
<title>5</title>
<path fill="none" stroke="#d85656" stroke-width="2" d="M126.5164,-108C126.5164,-108 45.5164,-108 45.5164,-108 39.5164,-108 33.5164,-102 33.5164,-96 33.5164,-96 33.5164,-84 33.5164,-84 33.5164,-78 39.5164,-72 45.5164,-72 45.5164,-72 126.5164,-72 126.5164,-72 132.5164,-72 138.5164,-78 138.5164,-84 138.5164,-84 138.5164,-96 138.5164,-96 138.5164,-102 132.5164,-108 126.5164,-108"/>
<text text-anchor="middle" x="86.0164" y="-87.5" font-family="sans" font-size="10.00" fill="#000000">multiqc_summary</text>
</g>
<!-- 5&#45;&gt;0 -->
<g id="edge1" class="edge">
<title>5&#45;&gt;0</title>
<path fill="none" stroke="#c0c0c0" stroke-width="2" d="M131.1857,-71.8314C161.2955,-59.7201 200.3608,-44.0067 228.5036,-32.6867"/>
<polygon fill="#c0c0c0" stroke="#c0c0c0" stroke-width="2" points="229.9984,-35.858 237.9699,-28.879 227.3861,-29.3637 229.9984,-35.858"/>
</g>
<!-- 6 -->
<g id="node7" class="node">
<title>6</title>
<path fill="none" stroke="#88d856" stroke-width="2" d="M355.0164,-252C355.0164,-252 257.0164,-252 257.0164,-252 251.0164,-252 245.0164,-246 245.0164,-240 245.0164,-240 245.0164,-228 245.0164,-228 245.0164,-222 251.0164,-216 257.0164,-216 257.0164,-216 355.0164,-216 355.0164,-216 361.0164,-216 367.0164,-222 367.0164,-228 367.0164,-228 367.0164,-240 367.0164,-240 367.0164,-246 361.0164,-252 355.0164,-252"/>
<text text-anchor="middle" x="306.0164" y="-231.5" font-family="sans" font-size="10.00" fill="#000000">multiqc_trimmomatic</text>
</g>
<!-- 6&#45;&gt;0 -->
<g id="edge5" class="edge">
<title>6&#45;&gt;0</title>
<path fill="none" stroke="#c0c0c0" stroke-width="2" d="M302.5913,-215.9555C295.4465,-178.3144 278.9083,-91.1867 270.3549,-46.1246"/>
<polygon fill="#c0c0c0" stroke="#c0c0c0" stroke-width="2" points="273.7641,-45.3169 268.4606,-36.1451 266.8869,-46.6224 273.7641,-45.3169"/>
</g>
<!-- 7 -->
<g id="node8" class="node">
<title>7</title>
<path fill="none" stroke="#bed856" stroke-width="2" d="M81.5164,-324C81.5164,-324 16.5164,-324 16.5164,-324 10.5164,-324 4.5164,-318 4.5164,-312 4.5164,-312 4.5164,-300 4.5164,-300 4.5164,-294 10.5164,-288 16.5164,-288 16.5164,-288 81.5164,-288 81.5164,-288 87.5164,-288 93.5164,-294 93.5164,-300 93.5164,-300 93.5164,-312 93.5164,-312 93.5164,-318 87.5164,-324 81.5164,-324"/>
<text text-anchor="middle" x="49.0164" y="-303.5" font-family="sans" font-size="10.00" fill="#000000">multiqc_fastqc</text>
</g>
<!-- 7&#45;&gt;0 -->
<g id="edge3" class="edge">
<title>7&#45;&gt;0</title>
<path fill="none" stroke="#c0c0c0" stroke-width="2" d="M39.2629,-287.7565C17.8197,-244.8709 -27.568,-136.4218 24.0164,-72 49.0978,-40.6768 166.3335,-26.2903 227.5605,-20.8187"/>
<polygon fill="#c0c0c0" stroke="#c0c0c0" stroke-width="2" points="227.9318,-24.2998 237.5956,-19.957 227.3328,-17.3254 227.9318,-24.2998"/>
</g>
<!-- 8 -->
<g id="node9" class="node">
<title>8</title>
<path fill="none" stroke="#d6d856" stroke-width="2" d="M215.0164,-252C215.0164,-252 153.0164,-252 153.0164,-252 147.0164,-252 141.0164,-246 141.0164,-240 141.0164,-240 141.0164,-228 141.0164,-228 141.0164,-222 147.0164,-216 153.0164,-216 153.0164,-216 215.0164,-216 215.0164,-216 221.0164,-216 227.0164,-222 227.0164,-228 227.0164,-228 227.0164,-240 227.0164,-240 227.0164,-246 221.0164,-252 215.0164,-252"/>
<text text-anchor="middle" x="184.0164" y="-231.5" font-family="sans" font-size="10.00" fill="#000000">samtools_sort</text>
</g>
<!-- 8&#45;&gt;1 -->
<g id="edge8" class="edge">
<title>8&#45;&gt;1</title>
<path fill="none" stroke="#c0c0c0" stroke-width="2" d="M199.1569,-215.8314C206.1381,-207.454 214.5555,-197.3531 222.204,-188.1749"/>
<polygon fill="#c0c0c0" stroke="#c0c0c0" stroke-width="2" points="224.9589,-190.3362 228.672,-180.4133 219.5814,-185.8548 224.9589,-190.3362"/>
</g>
<!-- 10 -->
<g id="node11" class="node">
<title>10</title>
<path fill="none" stroke="#56d8a2" stroke-width="2" d="M183.0164,-180C183.0164,-180 153.0164,-180 153.0164,-180 147.0164,-180 141.0164,-174 141.0164,-168 141.0164,-168 141.0164,-156 141.0164,-156 141.0164,-150 147.0164,-144 153.0164,-144 153.0164,-144 183.0164,-144 183.0164,-144 189.0164,-144 195.0164,-150 195.0164,-156 195.0164,-156 195.0164,-168 195.0164,-168 195.0164,-174 189.0164,-180 183.0164,-180"/>
<text text-anchor="middle" x="168.0164" y="-159.5" font-family="sans" font-size="10.00" fill="#000000">htseq</text>
</g>
<!-- 8&#45;&gt;10 -->
<g id="edge18" class="edge">
<title>8&#45;&gt;10</title>
<path fill="none" stroke="#c0c0c0" stroke-width="2" d="M179.9789,-215.8314C178.2677,-208.131 176.2329,-198.9743 174.3312,-190.4166"/>
<polygon fill="#c0c0c0" stroke="#c0c0c0" stroke-width="2" points="177.6943,-189.4159 172.1082,-180.4133 170.861,-190.9344 177.6943,-189.4159"/>
</g>
<!-- 12 -->
<g id="node13" class="node">
<title>12</title>
<path fill="none" stroke="#d8a456" stroke-width="2" d="M111.0164,-180C111.0164,-180 81.0164,-180 81.0164,-180 75.0164,-180 69.0164,-174 69.0164,-168 69.0164,-168 69.0164,-156 69.0164,-156 69.0164,-150 75.0164,-144 81.0164,-144 81.0164,-144 111.0164,-144 111.0164,-144 117.0164,-144 123.0164,-150 123.0164,-156 123.0164,-156 123.0164,-168 123.0164,-168 123.0164,-174 117.0164,-180 111.0164,-180"/>
<text text-anchor="middle" x="96.0164" y="-159.5" font-family="sans" font-size="10.00" fill="#000000">rseqc</text>
</g>
<!-- 8&#45;&gt;12 -->
<g id="edge22" class="edge">
<title>8&#45;&gt;12</title>
<path fill="none" stroke="#c0c0c0" stroke-width="2" d="M161.8103,-215.8314C150.9714,-206.9632 137.772,-196.1637 126.0486,-186.5718"/>
<polygon fill="#c0c0c0" stroke="#c0c0c0" stroke-width="2" points="128.1714,-183.7864 118.2154,-180.1628 123.7387,-189.2041 128.1714,-183.7864"/>
</g>
<!-- 9 -->
<g id="node10" class="node">
<title>9</title>
<path fill="none" stroke="#56c1d8" stroke-width="2" d="M422.0164,-324C422.0164,-324 352.0164,-324 352.0164,-324 346.0164,-324 340.0164,-318 340.0164,-312 340.0164,-312 340.0164,-300 340.0164,-300 340.0164,-294 346.0164,-288 352.0164,-288 352.0164,-288 422.0164,-288 422.0164,-288 428.0164,-288 434.0164,-294 434.0164,-300 434.0164,-300 434.0164,-312 434.0164,-312 434.0164,-318 428.0164,-324 422.0164,-324"/>
<text text-anchor="middle" x="387.0164" y="-303.5" font-family="sans" font-size="10.00" fill="#000000">fastqc_trimmed</text>
</g>
<!-- 9&#45;&gt;2 -->
<g id="edge9" class="edge">
<title>9&#45;&gt;2</title>
<path fill="none" stroke="#c0c0c0" stroke-width="2" d="M388.5362,-287.7623C390.583,-263.201 394.2458,-219.2474 396.6536,-190.3541"/>
<polygon fill="#c0c0c0" stroke="#c0c0c0" stroke-width="2" points="400.1663,-190.3458 397.5089,-180.0896 393.1905,-189.7644 400.1663,-190.3458"/>
</g>
<!-- 10&#45;&gt;4 -->
<g id="edge10" class="edge">
<title>10&#45;&gt;4</title>
<path fill="none" stroke="#c0c0c0" stroke-width="2" d="M175.3343,-143.8314C178.504,-135.9617 182.2864,-126.5712 185.7977,-117.8533"/>
<polygon fill="#c0c0c0" stroke="#c0c0c0" stroke-width="2" points="189.1103,-118.9968 189.6,-108.4133 182.6172,-116.3815 189.1103,-118.9968"/>
</g>
<!-- 10&#45;&gt;5 -->
<g id="edge12" class="edge">
<title>10&#45;&gt;5</title>
<path fill="none" stroke="#c0c0c0" stroke-width="2" d="M147.3243,-143.8314C137.3216,-135.0485 125.1614,-124.3712 114.3165,-114.8489"/>
<polygon fill="#c0c0c0" stroke="#c0c0c0" stroke-width="2" points="116.5256,-112.1308 106.7018,-108.1628 111.907,-117.3909 116.5256,-112.1308"/>
</g>
<!-- 11 -->
<g id="node12" class="node">
<title>11</title>
<path fill="none" stroke="#5673d8" stroke-width="2" d="M199.0164,-324C199.0164,-324 169.0164,-324 169.0164,-324 163.0164,-324 157.0164,-318 157.0164,-312 157.0164,-312 157.0164,-300 157.0164,-300 157.0164,-294 163.0164,-288 169.0164,-288 169.0164,-288 199.0164,-288 199.0164,-288 205.0164,-288 211.0164,-294 211.0164,-300 211.0164,-300 211.0164,-312 211.0164,-312 211.0164,-318 205.0164,-324 199.0164,-324"/>
<text text-anchor="middle" x="184.0164" y="-303.5" font-family="sans" font-size="10.00" fill="#000000">hisat2</text>
</g>
<!-- 11&#45;&gt;5 -->
<g id="edge13" class="edge">
<title>11&#45;&gt;5</title>
<path fill="none" stroke="#c0c0c0" stroke-width="2" d="M157.0021,-302.805C127.4511,-297.7074 81.4428,-284.7007 60.0164,-252 33.0466,-210.8388 54.3176,-151.4564 71.0023,-117.1904"/>
<polygon fill="#c0c0c0" stroke="#c0c0c0" stroke-width="2" points="74.1458,-118.73 75.5428,-108.2277 67.9014,-115.5666 74.1458,-118.73"/>
</g>
<!-- 11&#45;&gt;8 -->
<g id="edge16" class="edge">
<title>11&#45;&gt;8</title>
<path fill="none" stroke="#c0c0c0" stroke-width="2" d="M184.0164,-287.8314C184.0164,-280.131 184.0164,-270.9743 184.0164,-262.4166"/>
<polygon fill="#c0c0c0" stroke="#c0c0c0" stroke-width="2" points="187.5165,-262.4132 184.0164,-252.4133 180.5165,-262.4133 187.5165,-262.4132"/>
</g>
<!-- 12&#45;&gt;5 -->
<g id="edge11" class="edge">
<title>12&#45;&gt;5</title>
<path fill="none" stroke="#c0c0c0" stroke-width="2" d="M93.493,-143.8314C92.4235,-136.131 91.1517,-126.9743 89.9632,-118.4166"/>
<polygon fill="#c0c0c0" stroke="#c0c0c0" stroke-width="2" points="93.4163,-117.8367 88.5738,-108.4133 86.4828,-118.7997 93.4163,-117.8367"/>
</g>
<!-- 13 -->
<g id="node14" class="node">
<title>13</title>
<path fill="none" stroke="#56d8d8" stroke-width="2" d="M334.0164,-396C334.0164,-396 260.0164,-396 260.0164,-396 254.0164,-396 248.0164,-390 248.0164,-384 248.0164,-384 248.0164,-372 248.0164,-372 248.0164,-366 254.0164,-360 260.0164,-360 260.0164,-360 334.0164,-360 334.0164,-360 340.0164,-360 346.0164,-366 346.0164,-372 346.0164,-372 346.0164,-384 346.0164,-384 346.0164,-390 340.0164,-396 334.0164,-396"/>
<text text-anchor="middle" x="297.0164" y="-375.5" font-family="sans" font-size="10.00" fill="#000000">trimmomatic_pe</text>
</g>
<!-- 13&#45;&gt;6 -->
<g id="edge14" class="edge">
<title>13&#45;&gt;6</title>
<path fill="none" stroke="#c0c0c0" stroke-width="2" d="M298.1563,-359.7623C299.6913,-335.201 302.4384,-291.2474 304.2443,-262.3541"/>
<polygon fill="#c0c0c0" stroke="#c0c0c0" stroke-width="2" points="307.7551,-262.2885 304.8858,-252.0896 300.7687,-261.8518 307.7551,-262.2885"/>
</g>
<!-- 13&#45;&gt;9 -->
<g id="edge17" class="edge">
<title>13&#45;&gt;9</title>
<path fill="none" stroke="#c0c0c0" stroke-width="2" d="M319.7272,-359.8314C330.8124,-350.9632 344.3118,-340.1637 356.3016,-330.5718"/>
<polygon fill="#c0c0c0" stroke="#c0c0c0" stroke-width="2" points="358.6906,-333.1429 364.3129,-324.1628 354.3177,-327.6768 358.6906,-333.1429"/>
</g>
<!-- 13&#45;&gt;11 -->
<g id="edge20" class="edge">
<title>13&#45;&gt;11</title>
<path fill="none" stroke="#c0c0c0" stroke-width="2" d="M268.5017,-359.8314C253.7173,-350.4112 235.5127,-338.8118 219.7927,-328.7955"/>
<polygon fill="#c0c0c0" stroke="#c0c0c0" stroke-width="2" points="221.6669,-325.8396 211.3525,-323.4177 217.9053,-331.7431 221.6669,-325.8396"/>
</g>
<!-- 14 -->
<g id="node15" class="node">
<title>14</title>
<path fill="none" stroke="#70d856" stroke-width="2" d="M113.0164,-396C113.0164,-396 83.0164,-396 83.0164,-396 77.0164,-396 71.0164,-390 71.0164,-384 71.0164,-384 71.0164,-372 71.0164,-372 71.0164,-366 77.0164,-360 83.0164,-360 83.0164,-360 113.0164,-360 113.0164,-360 119.0164,-360 125.0164,-366 125.0164,-372 125.0164,-372 125.0164,-384 125.0164,-384 125.0164,-390 119.0164,-396 113.0164,-396"/>
<text text-anchor="middle" x="98.0164" y="-375.5" font-family="sans" font-size="10.00" fill="#000000">fastqc</text>
</g>
<!-- 14&#45;&gt;7 -->
<g id="edge15" class="edge">
<title>14&#45;&gt;7</title>
<path fill="none" stroke="#c0c0c0" stroke-width="2" d="M85.6516,-359.8314C80.0656,-351.6232 73.3534,-341.7606 67.2092,-332.7323"/>
<polygon fill="#c0c0c0" stroke="#c0c0c0" stroke-width="2" points="70.0674,-330.7112 61.5477,-324.4133 64.2804,-334.6496 70.0674,-330.7112"/>
</g>
<!-- 15 -->
<g id="node16" class="node">
<title>15</title>
<path fill="none" stroke="#568ad8" stroke-width="2" d="M209.0164,-396C209.0164,-396 159.0164,-396 159.0164,-396 153.0164,-396 147.0164,-390 147.0164,-384 147.0164,-384 147.0164,-372 147.0164,-372 147.0164,-366 153.0164,-360 159.0164,-360 159.0164,-360 209.0164,-360 209.0164,-360 215.0164,-360 221.0164,-366 221.0164,-372 221.0164,-372 221.0164,-384 221.0164,-384 221.0164,-390 215.0164,-396 209.0164,-396"/>
<text text-anchor="middle" x="184.0164" y="-375.5" font-family="sans" font-size="10.00" fill="#000000">hisat2index</text>
</g>
<!-- 15&#45;&gt;11 -->
<g id="edge19" class="edge">
<title>15&#45;&gt;11</title>
<path fill="none" stroke="#c0c0c0" stroke-width="2" d="M184.0164,-359.8314C184.0164,-352.131 184.0164,-342.9743 184.0164,-334.4166"/>
<polygon fill="#c0c0c0" stroke="#c0c0c0" stroke-width="2" points="187.5165,-334.4132 184.0164,-324.4133 180.5165,-334.4133 187.5165,-334.4132"/>
</g>
<!-- 16 -->
<g id="node17" class="node">
<title>16</title>
<path fill="none" stroke="#d8bc56" stroke-width="2" d="M111.0164,-252C111.0164,-252 81.0164,-252 81.0164,-252 75.0164,-252 69.0164,-246 69.0164,-240 69.0164,-240 69.0164,-228 69.0164,-228 69.0164,-222 75.0164,-216 81.0164,-216 81.0164,-216 111.0164,-216 111.0164,-216 117.0164,-216 123.0164,-222 123.0164,-228 123.0164,-228 123.0164,-240 123.0164,-240 123.0164,-246 117.0164,-252 111.0164,-252"/>
<text text-anchor="middle" x="96.0164" y="-231.5" font-family="sans" font-size="10.00" fill="#000000">gtf2bed</text>
</g>
<!-- 16&#45;&gt;12 -->
<g id="edge21" class="edge">
<title>16&#45;&gt;12</title>
<path fill="none" stroke="#c0c0c0" stroke-width="2" d="M96.0164,-215.8314C96.0164,-208.131 96.0164,-198.9743 96.0164,-190.4166"/>
<polygon fill="#c0c0c0" stroke="#c0c0c0" stroke-width="2" points="99.5165,-190.4132 96.0164,-180.4133 92.5165,-190.4133 99.5165,-190.4132"/>
</g>
<!-- 17 -->
<g id="node18" class="node">
<title>17</title>
<path fill="none" stroke="#56a2d8" stroke-width="2" d="M206.0164,-468C206.0164,-468 176.0164,-468 176.0164,-468 170.0164,-468 164.0164,-462 164.0164,-456 164.0164,-456 164.0164,-444 164.0164,-444 164.0164,-438 170.0164,-432 176.0164,-432 176.0164,-432 206.0164,-432 206.0164,-432 212.0164,-432 218.0164,-438 218.0164,-444 218.0164,-444 218.0164,-456 218.0164,-456 218.0164,-462 212.0164,-468 206.0164,-468"/>
<text text-anchor="middle" x="191.0164" y="-447.5" font-family="sans" font-size="10.00" fill="#000000">merge</text>
</g>
<!-- 17&#45;&gt;13 -->
<g id="edge23" class="edge">
<title>17&#45;&gt;13</title>
<path fill="none" stroke="#c0c0c0" stroke-width="2" d="M217.7647,-431.8314C231.0717,-422.7927 247.3324,-411.7476 261.6539,-402.0198"/>
<polygon fill="#c0c0c0" stroke="#c0c0c0" stroke-width="2" points="263.9711,-404.677 270.2767,-396.1628 260.0379,-398.8864 263.9711,-404.677"/>
</g>
<!-- 17&#45;&gt;14 -->
<g id="edge24" class="edge">
<title>17&#45;&gt;14</title>
<path fill="none" stroke="#c0c0c0" stroke-width="2" d="M167.5486,-431.8314C155.9837,-422.8779 141.876,-411.9558 129.3981,-402.2955"/>
<polygon fill="#c0c0c0" stroke="#c0c0c0" stroke-width="2" points="131.5266,-399.5171 121.4767,-396.1628 127.2414,-405.0521 131.5266,-399.5171"/>
</g>
</g>
</svg>
