<?xml version="1.0" encoding="UTF-8" standalone="no"?>
<!DOCTYPE svg PUBLIC "-//W3C//DTD SVG 1.1//EN"
 "http://www.w3.org/Graphics/SVG/1.1/DTD/svg11.dtd">
<!-- Generated by graphviz version 2.40.1 (20161225.0304)
 -->
<!-- Title: snakemake_dag Pages: 1 -->
<svg width="541pt" height="476pt"
 viewBox="0.00 0.00 540.76 476.00" xmlns="http://www.w3.org/2000/svg" xmlns:xlink="http://www.w3.org/1999/xlink">
<g id="graph0" class="graph" transform="scale(1 1) rotate(0) translate(4 472)">
<title>snakemake_dag</title>
<polygon fill="#ffffff" stroke="transparent" points="-4,4 -4,-472 536.7551,-472 536.7551,4 -4,4"/>
<!-- 0 -->
<g id="node1" class="node">
<title>0</title>
<path fill="none" stroke="#80d856" stroke-width="2" d="M219.7551,-36C219.7551,-36 189.7551,-36 189.7551,-36 183.7551,-36 177.7551,-30 177.7551,-24 177.7551,-24 177.7551,-12 177.7551,-12 177.7551,-6 183.7551,0 189.7551,0 189.7551,0 219.7551,0 219.7551,0 225.7551,0 231.7551,-6 231.7551,-12 231.7551,-12 231.7551,-24 231.7551,-24 231.7551,-30 225.7551,-36 219.7551,-36"/>
<text text-anchor="middle" x="204.7551" y="-15.5" font-family="sans" font-size="10.00" fill="#000000">all</text>
</g>
<!-- 1 -->
<g id="node2" class="node">
<title>1</title>
<path fill="none" stroke="#d8c356" stroke-width="2" d="M194.7551,-180C194.7551,-180 164.7551,-180 164.7551,-180 158.7551,-180 152.7551,-174 152.7551,-168 152.7551,-168 152.7551,-156 152.7551,-156 152.7551,-150 158.7551,-144 164.7551,-144 164.7551,-144 194.7551,-144 194.7551,-144 200.7551,-144 206.7551,-150 206.7551,-156 206.7551,-156 206.7551,-168 206.7551,-168 206.7551,-174 200.7551,-180 194.7551,-180"/>
<text text-anchor="middle" x="179.7551" y="-159.5" font-family="sans" font-size="10.00" fill="#000000">htseq</text>
</g>
<!-- 1&#45;&gt;0 -->
<g id="edge2" class="edge">
<title>1&#45;&gt;0</title>
<path fill="none" stroke="#c0c0c0" stroke-width="2" d="M182.9214,-143.7623C187.2042,-119.0928 194.8836,-74.8598 199.8987,-45.9731"/>
<polygon fill="#c0c0c0" stroke="#c0c0c0" stroke-width="2" points="203.3523,-46.541 201.6145,-36.0896 196.4555,-45.3435 203.3523,-46.541"/>
</g>
<!-- 7 -->
<g id="node8" class="node">
<title>7</title>
<path fill="none" stroke="#56d89a" stroke-width="2" d="M326.2551,-108C326.2551,-108 245.2551,-108 245.2551,-108 239.2551,-108 233.2551,-102 233.2551,-96 233.2551,-96 233.2551,-84 233.2551,-84 233.2551,-78 239.2551,-72 245.2551,-72 245.2551,-72 326.2551,-72 326.2551,-72 332.2551,-72 338.2551,-78 338.2551,-84 338.2551,-84 338.2551,-96 338.2551,-96 338.2551,-102 332.2551,-108 326.2551,-108"/>
<text text-anchor="middle" x="285.7551" y="-87.5" font-family="sans" font-size="10.00" fill="#000000">multiqc_summary</text>
</g>
<!-- 1&#45;&gt;7 -->
<g id="edge14" class="edge">
<title>1&#45;&gt;7</title>
<path fill="none" stroke="#c0c0c0" stroke-width="2" d="M206.5034,-143.8314C219.8103,-134.7927 236.0711,-123.7476 250.3926,-114.0198"/>
<polygon fill="#c0c0c0" stroke="#c0c0c0" stroke-width="2" points="252.7098,-116.677 259.0154,-108.1628 248.7766,-110.8864 252.7098,-116.677"/>
</g>
<!-- 2 -->
<g id="node3" class="node">
<title>2</title>
<path fill="none" stroke="#56a9d8" stroke-width="2" d="M85.2551,-108C85.2551,-108 38.2551,-108 38.2551,-108 32.2551,-108 26.2551,-102 26.2551,-96 26.2551,-96 26.2551,-84 26.2551,-84 26.2551,-78 32.2551,-72 38.2551,-72 38.2551,-72 85.2551,-72 85.2551,-72 91.2551,-72 97.2551,-78 97.2551,-84 97.2551,-84 97.2551,-96 97.2551,-96 97.2551,-102 91.2551,-108 85.2551,-108"/>
<text text-anchor="middle" x="61.7551" y="-87.5" font-family="sans" font-size="10.00" fill="#000000">storeconfig</text>
</g>
<!-- 2&#45;&gt;0 -->
<g id="edge6" class="edge">
<title>2&#45;&gt;0</title>
<path fill="none" stroke="#c0c0c0" stroke-width="2" d="M97.4712,-72.0171C119.1867,-61.0834 146.8356,-47.1623 168.6258,-36.191"/>
<polygon fill="#c0c0c0" stroke="#c0c0c0" stroke-width="2" points="170.2136,-39.3102 177.5713,-31.6869 167.0656,-33.058 170.2136,-39.3102"/>
</g>
<!-- 3 -->
<g id="node4" class="node">
<title>3</title>
<path fill="none" stroke="#ced856" stroke-width="2" d="M164.2551,-108C164.2551,-108 127.2551,-108 127.2551,-108 121.2551,-108 115.2551,-102 115.2551,-96 115.2551,-96 115.2551,-84 115.2551,-84 115.2551,-78 121.2551,-72 127.2551,-72 127.2551,-72 164.2551,-72 164.2551,-72 170.2551,-72 176.2551,-78 176.2551,-84 176.2551,-84 176.2551,-96 176.2551,-96 176.2551,-102 170.2551,-108 164.2551,-108"/>
<text text-anchor="middle" x="145.7551" y="-87.5" font-family="sans" font-size="10.00" fill="#000000">htseq_qa</text>
</g>
<!-- 3&#45;&gt;0 -->
<g id="edge3" class="edge">
<title>3&#45;&gt;0</title>
<path fill="none" stroke="#c0c0c0" stroke-width="2" d="M160.6433,-71.8314C167.5081,-63.454 175.7852,-53.3531 183.3062,-44.1749"/>
<polygon fill="#c0c0c0" stroke="#c0c0c0" stroke-width="2" points="186.0354,-46.3665 189.6664,-36.4133 180.621,-41.9297 186.0354,-46.3665"/>
</g>
<!-- 4 -->
<g id="node5" class="node">
<title>4</title>
<path fill="none" stroke="#5673d8" stroke-width="2" d="M458.7551,-252C458.7551,-252 346.7551,-252 346.7551,-252 340.7551,-252 334.7551,-246 334.7551,-240 334.7551,-240 334.7551,-228 334.7551,-228 334.7551,-222 340.7551,-216 346.7551,-216 346.7551,-216 458.7551,-216 458.7551,-216 464.7551,-216 470.7551,-222 470.7551,-228 470.7551,-228 470.7551,-240 470.7551,-240 470.7551,-246 464.7551,-252 458.7551,-252"/>
<text text-anchor="middle" x="402.7551" y="-231.5" font-family="sans" font-size="10.00" fill="#000000">multiqc_fastqc_trimmed</text>
</g>
<!-- 4&#45;&gt;0 -->
<g id="edge7" class="edge">
<title>4&#45;&gt;0</title>
<path fill="none" stroke="#c0c0c0" stroke-width="2" d="M401.5446,-215.8601C398.3949,-182.8899 387.1864,-112.786 347.7551,-72 319.5434,-42.8191 273.9985,-29.2314 241.9019,-23.0205"/>
<polygon fill="#c0c0c0" stroke="#c0c0c0" stroke-width="2" points="242.4518,-19.5634 231.9925,-21.2528 241.2224,-26.4546 242.4518,-19.5634"/>
</g>
<!-- 5 -->
<g id="node6" class="node">
<title>5</title>
<path fill="none" stroke="#61d856" stroke-width="2" d="M148.2551,-324C148.2551,-324 83.2551,-324 83.2551,-324 77.2551,-324 71.2551,-318 71.2551,-312 71.2551,-312 71.2551,-300 71.2551,-300 71.2551,-294 77.2551,-288 83.2551,-288 83.2551,-288 148.2551,-288 148.2551,-288 154.2551,-288 160.2551,-294 160.2551,-300 160.2551,-300 160.2551,-312 160.2551,-312 160.2551,-318 154.2551,-324 148.2551,-324"/>
<text text-anchor="middle" x="115.7551" y="-303.5" font-family="sans" font-size="10.00" fill="#000000">multiqc_fastqc</text>
</g>
<!-- 5&#45;&gt;0 -->
<g id="edge4" class="edge">
<title>5&#45;&gt;0</title>
<path fill="none" stroke="#c0c0c0" stroke-width="2" d="M96.3106,-287.7354C54.4107,-246.1688 -36.4553,-142.6457 16.7551,-72 34.8754,-47.9423 118.1457,-31.2978 167.5811,-23.3436"/>
<polygon fill="#c0c0c0" stroke="#c0c0c0" stroke-width="2" points="168.2424,-26.7828 177.5809,-21.7786 167.16,-19.867 168.2424,-26.7828"/>
</g>
<!-- 6 -->
<g id="node7" class="node">
<title>6</title>
<path fill="none" stroke="#d87556" stroke-width="2" d="M520.7551,-180C520.7551,-180 422.7551,-180 422.7551,-180 416.7551,-180 410.7551,-174 410.7551,-168 410.7551,-168 410.7551,-156 410.7551,-156 410.7551,-150 416.7551,-144 422.7551,-144 422.7551,-144 520.7551,-144 520.7551,-144 526.7551,-144 532.7551,-150 532.7551,-156 532.7551,-156 532.7551,-168 532.7551,-168 532.7551,-174 526.7551,-180 520.7551,-180"/>
<text text-anchor="middle" x="471.7551" y="-159.5" font-family="sans" font-size="10.00" fill="#000000">multiqc_trimmomatic</text>
</g>
<!-- 6&#45;&gt;0 -->
<g id="edge1" class="edge">
<title>6&#45;&gt;0</title>
<path fill="none" stroke="#c0c0c0" stroke-width="2" d="M458.9625,-143.7593C443.7593,-123.3957 416.5422,-90.8346 385.7551,-72 340.6259,-44.3913 280.4926,-30.1344 242.1898,-23.3655"/>
<polygon fill="#c0c0c0" stroke="#c0c0c0" stroke-width="2" points="242.4381,-19.8582 231.9959,-21.65 241.2764,-26.7611 242.4381,-19.8582"/>
</g>
<!-- 7&#45;&gt;0 -->
<g id="edge5" class="edge">
<title>7&#45;&gt;0</title>
<path fill="none" stroke="#c0c0c0" stroke-width="2" d="M265.3154,-71.8314C255.4346,-63.0485 243.4227,-52.3712 232.71,-42.8489"/>
<polygon fill="#c0c0c0" stroke="#c0c0c0" stroke-width="2" points="234.9877,-40.1906 225.1883,-36.1628 230.3371,-45.4224 234.9877,-40.1906"/>
</g>
<!-- 8 -->
<g id="node9" class="node">
<title>8</title>
<path fill="none" stroke="#b6d856" stroke-width="2" d="M194.7551,-252C194.7551,-252 132.7551,-252 132.7551,-252 126.7551,-252 120.7551,-246 120.7551,-240 120.7551,-240 120.7551,-228 120.7551,-228 120.7551,-222 126.7551,-216 132.7551,-216 132.7551,-216 194.7551,-216 194.7551,-216 200.7551,-216 206.7551,-222 206.7551,-228 206.7551,-228 206.7551,-240 206.7551,-240 206.7551,-246 200.7551,-252 194.7551,-252"/>
<text text-anchor="middle" x="163.7551" y="-231.5" font-family="sans" font-size="10.00" fill="#000000">samtools_sort</text>
</g>
<!-- 8&#45;&gt;1 -->
<g id="edge8" class="edge">
<title>8&#45;&gt;1</title>
<path fill="none" stroke="#c0c0c0" stroke-width="2" d="M167.7926,-215.8314C169.5038,-208.131 171.5386,-198.9743 173.4403,-190.4166"/>
<polygon fill="#c0c0c0" stroke="#c0c0c0" stroke-width="2" points="176.9105,-190.9344 175.6633,-180.4133 170.0772,-189.4159 176.9105,-190.9344"/>
</g>
<!-- 8&#45;&gt;3 -->
<g id="edge9" class="edge">
<title>8&#45;&gt;3</title>
<path fill="none" stroke="#c0c0c0" stroke-width="2" d="M155.24,-215.9594C150.8571,-205.6742 145.9774,-192.3991 143.7551,-180 140.0844,-159.5204 140.7722,-136.0026 142.2782,-118.1445"/>
<polygon fill="#c0c0c0" stroke="#c0c0c0" stroke-width="2" points="145.7712,-118.3857 143.2611,-108.0926 138.8044,-117.7044 145.7712,-118.3857"/>
</g>
<!-- 13 -->
<g id="node14" class="node">
<title>13</title>
<path fill="none" stroke="#d85656" stroke-width="2" d="M266.7551,-180C266.7551,-180 236.7551,-180 236.7551,-180 230.7551,-180 224.7551,-174 224.7551,-168 224.7551,-168 224.7551,-156 224.7551,-156 224.7551,-150 230.7551,-144 236.7551,-144 236.7551,-144 266.7551,-144 266.7551,-144 272.7551,-144 278.7551,-150 278.7551,-156 278.7551,-156 278.7551,-168 278.7551,-168 278.7551,-174 272.7551,-180 266.7551,-180"/>
<text text-anchor="middle" x="251.7551" y="-159.5" font-family="sans" font-size="10.00" fill="#000000">rseqc</text>
</g>
<!-- 8&#45;&gt;13 -->
<g id="edge23" class="edge">
<title>8&#45;&gt;13</title>
<path fill="none" stroke="#c0c0c0" stroke-width="2" d="M185.9612,-215.8314C196.8001,-206.9632 209.9995,-196.1637 221.7229,-186.5718"/>
<polygon fill="#c0c0c0" stroke="#c0c0c0" stroke-width="2" points="224.0328,-189.2041 229.5561,-180.1628 219.6001,-183.7864 224.0328,-189.2041"/>
</g>
<!-- 9 -->
<g id="node10" class="node">
<title>9</title>
<path fill="none" stroke="#d8ac56" stroke-width="2" d="M437.7551,-324C437.7551,-324 367.7551,-324 367.7551,-324 361.7551,-324 355.7551,-318 355.7551,-312 355.7551,-312 355.7551,-300 355.7551,-300 355.7551,-294 361.7551,-288 367.7551,-288 367.7551,-288 437.7551,-288 437.7551,-288 443.7551,-288 449.7551,-294 449.7551,-300 449.7551,-300 449.7551,-312 449.7551,-312 449.7551,-318 443.7551,-324 437.7551,-324"/>
<text text-anchor="middle" x="402.7551" y="-303.5" font-family="sans" font-size="10.00" fill="#000000">fastqc_trimmed</text>
</g>
<!-- 9&#45;&gt;4 -->
<g id="edge10" class="edge">
<title>9&#45;&gt;4</title>
<path fill="none" stroke="#c0c0c0" stroke-width="2" d="M402.7551,-287.8314C402.7551,-280.131 402.7551,-270.9743 402.7551,-262.4166"/>
<polygon fill="#c0c0c0" stroke="#c0c0c0" stroke-width="2" points="406.2552,-262.4132 402.7551,-252.4133 399.2552,-262.4133 406.2552,-262.4132"/>
</g>
<!-- 10 -->
<g id="node11" class="node">
<title>10</title>
<path fill="none" stroke="#568ad8" stroke-width="2" d="M229.7551,-396C229.7551,-396 199.7551,-396 199.7551,-396 193.7551,-396 187.7551,-390 187.7551,-384 187.7551,-384 187.7551,-372 187.7551,-372 187.7551,-366 193.7551,-360 199.7551,-360 199.7551,-360 229.7551,-360 229.7551,-360 235.7551,-360 241.7551,-366 241.7551,-372 241.7551,-372 241.7551,-384 241.7551,-384 241.7551,-390 235.7551,-396 229.7551,-396"/>
<text text-anchor="middle" x="214.7551" y="-375.5" font-family="sans" font-size="10.00" fill="#000000">fastqc</text>
</g>
<!-- 10&#45;&gt;5 -->
<g id="edge11" class="edge">
<title>10&#45;&gt;5</title>
<path fill="none" stroke="#c0c0c0" stroke-width="2" d="M189.7732,-359.8314C177.4622,-350.8779 162.4444,-339.9558 149.1614,-330.2955"/>
<polygon fill="#c0c0c0" stroke="#c0c0c0" stroke-width="2" points="150.875,-327.214 140.729,-324.1628 146.7577,-332.8752 150.875,-327.214"/>
</g>
<!-- 11 -->
<g id="node12" class="node">
<title>11</title>
<path fill="none" stroke="#56c1d8" stroke-width="2" d="M439.7551,-396C439.7551,-396 365.7551,-396 365.7551,-396 359.7551,-396 353.7551,-390 353.7551,-384 353.7551,-384 353.7551,-372 353.7551,-372 353.7551,-366 359.7551,-360 365.7551,-360 365.7551,-360 439.7551,-360 439.7551,-360 445.7551,-360 451.7551,-366 451.7551,-372 451.7551,-372 451.7551,-384 451.7551,-384 451.7551,-390 445.7551,-396 439.7551,-396"/>
<text text-anchor="middle" x="402.7551" y="-375.5" font-family="sans" font-size="10.00" fill="#000000">trimmomatic_pe</text>
</g>
<!-- 11&#45;&gt;6 -->
<g id="edge12" class="edge">
<title>11&#45;&gt;6</title>
<path fill="none" stroke="#c0c0c0" stroke-width="2" d="M426.5601,-359.9747C437.756,-350.3901 450.4411,-337.7547 458.7551,-324 484.0502,-282.1519 483.3478,-264.7668 479.7551,-216 479.1382,-207.6264 477.9902,-198.5812 476.7525,-190.3322"/>
<polygon fill="#c0c0c0" stroke="#c0c0c0" stroke-width="2" points="480.2028,-189.7428 475.1701,-180.4196 473.2903,-190.8463 480.2028,-189.7428"/>
</g>
<!-- 11&#45;&gt;9 -->
<g id="edge17" class="edge">
<title>11&#45;&gt;9</title>
<path fill="none" stroke="#c0c0c0" stroke-width="2" d="M402.7551,-359.8314C402.7551,-352.131 402.7551,-342.9743 402.7551,-334.4166"/>
<polygon fill="#c0c0c0" stroke="#c0c0c0" stroke-width="2" points="406.2552,-334.4132 402.7551,-324.4133 399.2552,-334.4133 406.2552,-334.4132"/>
</g>
<!-- 12 -->
<g id="node13" class="node">
<title>12</title>
<path fill="none" stroke="#56d882" stroke-width="2" d="M317.7551,-324C317.7551,-324 287.7551,-324 287.7551,-324 281.7551,-324 275.7551,-318 275.7551,-312 275.7551,-312 275.7551,-300 275.7551,-300 275.7551,-294 281.7551,-288 287.7551,-288 287.7551,-288 317.7551,-288 317.7551,-288 323.7551,-288 329.7551,-294 329.7551,-300 329.7551,-300 329.7551,-312 329.7551,-312 329.7551,-318 323.7551,-324 317.7551,-324"/>
<text text-anchor="middle" x="302.7551" y="-303.5" font-family="sans" font-size="10.00" fill="#000000">hisat2</text>
</g>
<!-- 11&#45;&gt;12 -->
<g id="edge20" class="edge">
<title>11&#45;&gt;12</title>
<path fill="none" stroke="#c0c0c0" stroke-width="2" d="M377.5209,-359.8314C364.9671,-350.7927 349.6268,-339.7476 336.1159,-330.0198"/>
<polygon fill="#c0c0c0" stroke="#c0c0c0" stroke-width="2" points="338.1417,-327.1655 327.9812,-324.1628 334.0515,-332.8463 338.1417,-327.1655"/>
</g>
<!-- 12&#45;&gt;7 -->
<g id="edge15" class="edge">
<title>12&#45;&gt;7</title>
<path fill="none" stroke="#c0c0c0" stroke-width="2" d="M301.3349,-287.9555C298.3724,-250.3144 291.5152,-163.1867 287.9686,-118.1246"/>
<polygon fill="#c0c0c0" stroke="#c0c0c0" stroke-width="2" points="291.4571,-117.8396 287.1832,-108.1451 284.4787,-118.3889 291.4571,-117.8396"/>
</g>
<!-- 12&#45;&gt;8 -->
<g id="edge16" class="edge">
<title>12&#45;&gt;8</title>
<path fill="none" stroke="#c0c0c0" stroke-width="2" d="M275.6245,-291.9468C256.3203,-281.9474 229.9639,-268.2952 207.6824,-256.7537"/>
<polygon fill="#c0c0c0" stroke="#c0c0c0" stroke-width="2" points="209.2232,-253.6102 198.7339,-252.1185 206.0036,-259.8258 209.2232,-253.6102"/>
</g>
<!-- 13&#45;&gt;7 -->
<g id="edge13" class="edge">
<title>13&#45;&gt;7</title>
<path fill="none" stroke="#c0c0c0" stroke-width="2" d="M260.3347,-143.8314C264.0909,-135.8771 268.5808,-126.369 272.7348,-117.5723"/>
<polygon fill="#c0c0c0" stroke="#c0c0c0" stroke-width="2" points="275.9547,-118.9503 277.0599,-108.4133 269.6249,-115.9612 275.9547,-118.9503"/>
</g>
<!-- 14 -->
<g id="node15" class="node">
<title>14</title>
<path fill="none" stroke="#56d863" stroke-width="2" d="M322.7551,-468C322.7551,-468 292.7551,-468 292.7551,-468 286.7551,-468 280.7551,-462 280.7551,-456 280.7551,-456 280.7551,-444 280.7551,-444 280.7551,-438 286.7551,-432 292.7551,-432 292.7551,-432 322.7551,-432 322.7551,-432 328.7551,-432 334.7551,-438 334.7551,-444 334.7551,-444 334.7551,-456 334.7551,-456 334.7551,-462 328.7551,-468 322.7551,-468"/>
<text text-anchor="middle" x="307.7551" y="-447.5" font-family="sans" font-size="10.00" fill="#000000">merge</text>
</g>
<!-- 14&#45;&gt;10 -->
<g id="edge18" class="edge">
<title>14&#45;&gt;10</title>
<path fill="none" stroke="#c0c0c0" stroke-width="2" d="M284.2873,-431.8314C272.7224,-422.8779 258.6147,-411.9558 246.1368,-402.2955"/>
<polygon fill="#c0c0c0" stroke="#c0c0c0" stroke-width="2" points="248.2653,-399.5171 238.2154,-396.1628 243.98,-405.0521 248.2653,-399.5171"/>
</g>
<!-- 14&#45;&gt;11 -->
<g id="edge19" class="edge">
<title>14&#45;&gt;11</title>
<path fill="none" stroke="#c0c0c0" stroke-width="2" d="M331.7276,-431.8314C343.5412,-422.8779 357.9523,-411.9558 370.6986,-402.2955"/>
<polygon fill="#c0c0c0" stroke="#c0c0c0" stroke-width="2" points="372.9346,-404.9925 378.7902,-396.1628 368.7064,-399.4137 372.9346,-404.9925"/>
</g>
<!-- 15 -->
<g id="node16" class="node">
<title>15</title>
<path fill="none" stroke="#56d8b9" stroke-width="2" d="M323.7551,-396C323.7551,-396 273.7551,-396 273.7551,-396 267.7551,-396 261.7551,-390 261.7551,-384 261.7551,-384 261.7551,-372 261.7551,-372 261.7551,-366 267.7551,-360 273.7551,-360 273.7551,-360 323.7551,-360 323.7551,-360 329.7551,-360 335.7551,-366 335.7551,-372 335.7551,-372 335.7551,-384 335.7551,-384 335.7551,-390 329.7551,-396 323.7551,-396"/>
<text text-anchor="middle" x="298.7551" y="-375.5" font-family="sans" font-size="10.00" fill="#000000">hisat2index</text>
</g>
<!-- 15&#45;&gt;12 -->
<g id="edge21" class="edge">
<title>15&#45;&gt;12</title>
<path fill="none" stroke="#c0c0c0" stroke-width="2" d="M299.7645,-359.8314C300.1923,-352.131 300.701,-342.9743 301.1764,-334.4166"/>
<polygon fill="#c0c0c0" stroke="#c0c0c0" stroke-width="2" points="304.6719,-334.592 301.7321,-324.4133 297.6827,-334.2037 304.6719,-334.592"/>
</g>
<!-- 16 -->
<g id="node17" class="node">
<title>16</title>
<path fill="none" stroke="#56d8d0" stroke-width="2" d="M266.7551,-252C266.7551,-252 236.7551,-252 236.7551,-252 230.7551,-252 224.7551,-246 224.7551,-240 224.7551,-240 224.7551,-228 224.7551,-228 224.7551,-222 230.7551,-216 236.7551,-216 236.7551,-216 266.7551,-216 266.7551,-216 272.7551,-216 278.7551,-222 278.7551,-228 278.7551,-228 278.7551,-240 278.7551,-240 278.7551,-246 272.7551,-252 266.7551,-252"/>
<text text-anchor="middle" x="251.7551" y="-231.5" font-family="sans" font-size="10.00" fill="#000000">gtf2bed</text>
</g>
<!-- 16&#45;&gt;13 -->
<g id="edge22" class="edge">
<title>16&#45;&gt;13</title>
<path fill="none" stroke="#c0c0c0" stroke-width="2" d="M251.7551,-215.8314C251.7551,-208.131 251.7551,-198.9743 251.7551,-190.4166"/>
<polygon fill="#c0c0c0" stroke="#c0c0c0" stroke-width="2" points="255.2552,-190.4132 251.7551,-180.4133 248.2552,-190.4133 255.2552,-190.4132"/>
</g>
</g>
</svg>
